/vscmnt/brussel_pixiu_data/_data_brussel/112/vsc11236/PredSimResults/SUBJ10mtu3D/weighted-LRposFixed/expIG/worker_03.mot
version=1
nRows=6
nColumns=50
inDegrees=yes
endheader
                time	         pelvis_tilt	         pelvis_list	     pelvis_rotation	           pelvis_tx	           pelvis_ty	           pelvis_tz	       hip_flexion_r	     hip_adduction_r	      hip_rotation_r	        knee_angle_r	       ankle_angle_r	         mtp_angle_r	       hip_flexion_l	     hip_adduction_l	      hip_rotation_l	        knee_angle_l	       ankle_angle_l	         mtp_angle_l	    lumbar_extension	      lumbar_bending	     lumbar_rotation	 ercspn_r/activation	 intobl_r/activation	 extobl_r/activation	    abd_r/activation	    add_r/activation	hamstrings_r/activation	bifemsh_r/activation	glut_max_r/activation	iliopsoas_r/activation	rect_fem_r/activation	  vasti_r/activation	gastroc_r/activation	 soleus_r/activation	tib_ant_r/activation	 ercspn_l/activation	 intobl_l/activation	 extobl_l/activation	    abd_l/activation	    add_l/activation	hamstrings_l/activation	bifemsh_l/activation	glut_max_l/activation	iliopsoas_l/activation	rect_fem_l/activation	  vasti_l/activation	gastroc_l/activation	 soleus_l/activation	tib_ant_l/activation	
          1.00000001	        -10.10347369	          4.79476933	         -8.22565980	          1.12000001	          0.82635553	         -0.00321532	          3.16330381	         -3.05362369	         -1.42374474	        -20.57292223	         16.14593627	         19.99388284	         33.48330233	          2.97094219	          3.71676772	         -6.18843929	          5.53329895	          0.87073930	         -7.23293161	         -3.60621957	         -2.79941864	          0.06551379	          0.00999999	          0.00999999	          0.05086957	          0.06670216	          0.01291592	          0.11034688	          0.00999999	          0.17516220	          0.01333332	          0.03819313	          0.25715819	          0.20807315	          0.01858202	          0.16990408	          0.02370368	          0.00999999	          0.08423377	          0.20960717	          0.05400524	          0.25461651	          0.02263256	          0.07713639	          0.03709675	          0.00999999	          0.00999999	          0.00999999	          0.25136077	
          1.02000001	        -10.13284733	          4.07063834	         -7.64689800	          1.14843745	          0.82469084	         -0.00396586	          1.77270191	         -2.63260102	         -2.46023525	        -21.88211643	         14.28710376	         22.72710191	         32.43964312	          2.67308047	          3.15939558	         -7.45604605	          5.40621684	          0.69837476	         -6.41940452	         -3.60181672	         -2.32314764	          0.05395605	          0.00999999	          0.00999999	          0.03815218	          0.05862341	          0.04141057	          0.08276016	          0.01333332	          0.26312340	          0.00999999	          0.02864485	          0.19554306	          0.15605486	          0.01393651	          0.13064641	          0.01777776	          0.00999999	          0.10657250	          0.20326396	          0.06881410	          0.19096238	          0.02537536	          0.05785229	          0.02782256	          0.00999999	          0.01755332	          0.01333332	          0.27050970	
          1.04000001	        -10.13127422	          3.36817944	         -7.05281662	          1.17689322	          0.82304300	         -0.00491067	          1.39104097	         -2.27853330	         -3.42046744	        -25.05240070	         12.23180846	         25.28609781	         31.18888077	          2.54951429	          2.86878626	         -8.81037521	          5.01332377	          0.56442879	         -5.61363856	         -3.66823489	         -1.91702235	          0.09738136	          0.00999999	          0.00999999	          0.02861413	          0.12020091	          0.04213988	          0.06207013	          0.00999999	          0.32666160	          0.00999999	          0.02148364	          0.14665729	          0.11704115	          0.01045239	          0.10399541	          0.01333332	          0.00999999	          0.13190208	          0.22477579	          0.06414467	          0.14322178	          0.11262805	          0.04338922	          0.02086692	          0.00999999	          0.01316499	          0.00999999	          0.32781566	
          1.06000001	        -10.10167749	          2.76699900	         -6.39825481	          1.20437390	          0.82231211	         -0.00595184	          2.15587474	         -2.09836246	         -4.33469280	        -30.04504764	          9.70209331	         26.96412692	         29.95740821	          2.52314006	          2.87239363	        -10.09370413	          4.77481759	          0.44783365	         -4.94260106	         -3.89954881	         -1.60963789	          0.11451633	          0.00999999	          0.00999999	          0.02146060	          0.17208275	          0.03160491	          0.05400989	          0.00999999	          0.32688634	          0.00999999	          0.01611273	          0.10999297	          0.08778086	          0.00999999	          0.08000434	          0.00999999	          0.00999999	          0.14626130	          0.17219974	          0.07044137	          0.10741634	          0.11997824	          0.03254192	          0.01565019	          0.09587604	          0.00999999	          0.00999999	          0.34970494	
          1.08000001	        -10.05289737	          2.21860583	         -5.65173920	          1.23040000	          0.82339436	         -0.00695372	          3.94850965	         -2.04660860	         -5.16545318	        -36.33427173	          6.35951100	         26.83712963	         28.67453377	          2.54263575	          3.16818593	        -11.19375112	          5.06893907	          0.35792810	         -4.47673806	         -4.24338006	         -1.40355608	          0.14633583	          0.02660129	          0.00999999	          0.01609545	          0.16899618	          0.02370368	          0.08251351	          0.00999999	          0.26588268	          0.00999999	          0.01208454	          0.08249473	          0.06583564	          0.02466671	          0.06000325	          0.00999999	          0.00999999	          0.13555464	          0.12914981	          0.05779884	          0.08056225	          0.10697452	          0.02440644	          0.01173764	          0.14651242	          0.00999999	          0.00999999	          0.33204201	
          1.10000001	         -9.98722272	          1.65071006	         -4.79822589	          1.25517054	          0.82623744	         -0.00783640	          6.38439218	         -1.98927155	         -5.78412927	        -43.12529879	          3.01683547	         23.46995551	         27.16384257	          2.52277089	          3.75477084	        -11.81070238	          5.72996969	          0.30778404	         -4.18637712	         -4.58708834	         -1.29170545	          0.19294625	          0.06631570	          0.00999999	          0.01207159	          0.12674714	          0.01777776	          0.06188513	          0.00999999	          0.22050664	          0.00999999	          0.00999999	          0.06187105	          0.04937673	          0.20956610	          0.04500244	          0.00999999	          0.00999999	          0.14182208	          0.09686235	          0.05323243	          0.06042169	          0.10975703	          0.01830483	          0.00999999	          0.12276473	          0.00999999	          0.00999999	          0.29260899	
